# xmcd
#
# Track frame offsets: 
#        150
#        21905
#        42100
#        59797
#        80025
#        100209
#        117529
#        135376
#        152191
#        173789
#        197921
#        215654
#        232596
#        246231
#
# Disc length: 3532 seconds
#
# Revision: 0
# Processed by: cddbd v1.5.2PL0 Copyright (c) Steve Scherf et al.
# Submitted via: ExactAudioCopy v1.2
#
DISCID=c60dca0e
DTITLE=Colin Linden - Raised by Wolves
DYEAR=2000
DGENRE=Blues
TTITLE0=Too Late to Holler
TTITLE1=Love's Like Rain
TTITLE2=Anything, Anytime, Anywhere
TTITLE3=Raging River
TTITLE4=Easy Rider
TTITLE5=He Wasn't Fooling
TTITLE6=Before the Blues
TTITLE7=Love Everyone
TTITLE8=George Chuvalo
TTITLE9=Holy Fire
TTITLE10=Ten Years
TTITLE11=Ride with Me
TTITLE12=Twister
TTITLE13=Do Remember Me
EXTD=
EXTT0=
EXTT1=
EXTT2=
EXTT3=
EXTT4=
EXTT5=
EXTT6=
EXTT7=
EXTT8=
EXTT9=
EXTT10=
EXTT11=
EXTT12=
EXTT13=
PLAYORDER=
